<svg xmlns="http://www.w3.org/2000/svg" viewBox="0 0 172 104.13"><title>Aiways logo - Brandlogos.net</title><path d="M589.3,459.93H545.21a7.37,7.37,0,0,0-7.39,7.35v8.87a7.37,7.37,0,0,0,7.39,7.34H589.3a7.37,7.37,0,0,0,7.39-7.34v-8.87a7.37,7.37,0,0,0-7.39-7.35" transform="translate(-426 -459.93)" style="fill:#3b3939"/><path d="M589.3,507.05H545.21a7.37,7.37,0,0,0-7.39,7.35v8.87a7.37,7.37,0,0,0,7.39,7.34H589.3a7.37,7.37,0,0,0,7.39-7.34V514.4a7.37,7.37,0,0,0-7.39-7.35" transform="translate(-426 -459.93)" style="fill:#3b3939"/><path d="M530.43,483.49H492.26a7.37,7.37,0,0,1-7.39-7.35v-8.87a7.37,7.37,0,0,0-7.39-7.34H433.39a7.37,7.37,0,0,0-7.39,7.34v8.87a7.37,7.37,0,0,0,7.39,7.35h44.09a7.36,7.36,0,0,1,7.39,7.34v8.87a7.37,7.37,0,0,1-7.39,7.35H433.39A7.37,7.37,0,0,0,426,514.4v8.87a7.36,7.36,0,0,0,7.39,7.34h44.09a7.36,7.36,0,0,0,7.39-7.34V514.4a7.37,7.37,0,0,1,7.39-7.35h38.17a7.37,7.37,0,0,0,7.39-7.35v-8.87a7.37,7.37,0,0,0-7.39-7.34" transform="translate(-426 -459.93)" style="fill:#3b3939"/><path d="M526.07,549.29H508.48c-3.94,0-5.28,2.07-5.28,4.66v9.9a.17.17,0,0,0,.18.21h3.47a.16.16,0,0,0,.18-.2v-3.64h16.79a.17.17,0,0,0,.19-.17V557c0-.15-.14-.17-.2-.17H507v-3.16c0-.66.3-.9,1-.9h18.49c.73,0,1,.23,1,.9v10.26h0a.16.16,0,0,0,.18.18h3.46a.16.16,0,0,0,.18-.18V554c0-2.6-1.34-4.66-5.27-4.66" transform="translate(-426 -459.93)" style="fill:#3b3939"/><path d="M448.86,549.29H431.28c-3.94,0-5.27,2.07-5.27,4.66v9.9s0,.21.17.21h3.47a.16.16,0,0,0,.18-.2v-3.64h16.79a.17.17,0,0,0,.19-.17V557c0-.15-.14-.17-.2-.17H429.82v-3.16c0-.66.3-.9,1-.9h18.49c.74,0,1,.23,1,.9v10.26a.17.17,0,0,0,.18.18H454a.17.17,0,0,0,.18-.18V554c0-2.6-1.34-4.66-5.28-4.66" transform="translate(-426 -459.93)" style="fill:#3b3939"/><path d="M462.9,549.29h-3.46a.17.17,0,0,0-.18.19v14.4a.16.16,0,0,0,.18.18h3.46a.17.17,0,0,0,.18-.19v-14.4a.16.16,0,0,0-.18-.18" transform="translate(-426 -459.93)" style="fill:#3b3939"/><path d="M593.69,555H573.51c-.38,0-.55-.14-.55-.47s0-.63,0-1.27c0-.37.21-.52.62-.52H597a.17.17,0,0,0,.19-.17v-3.1a.17.17,0,0,0-.2-.17H573.16c-2.51,0-4,1.51-4,3.5v2.07c0,2.38,1.15,3.57,4.7,3.57H593.7c.36,0,.49.19.49.42v1.32c0,.32-.16.46-.62.46H569.75a.17.17,0,0,0-.19.17v3.1h0c0,.16.14.17.2.17h23.63c2.61,0,4.62-1,4.62-3.67v-1.94c0-2.15-1.53-3.46-4.31-3.46" transform="translate(-426 -459.93)" style="fill:#3b3939"/><path d="M564.43,549.29H561a.16.16,0,0,0-.18.19v6.21c0,.67-.24.94-1.09.94H540.87c-.86,0-1.09-.27-1.09-.94v-6.21h0a.17.17,0,0,0-.18-.18h-3.46a.16.16,0,0,0-.18.18v5.89c0,2.6,1.34,4.66,5.27,4.66h7.15v3.85a.16.16,0,0,0,.18.18H552a.17.17,0,0,0,.18-.18V560h7.14c3.94,0,5.27-2.07,5.27-4.66v-5.89a.17.17,0,0,0-.18-.18" transform="translate(-426 -459.93)" style="fill:#3b3939"/><path d="M481.58,557.87H485a.16.16,0,0,0,.17-.18V549.5a.15.15,0,0,0-.17-.17h-3.46a.16.16,0,0,0-.17.17v8.17a.17.17,0,0,0,.18.18" transform="translate(-426 -459.93)" style="fill:#3b3939"/><path d="M498.24,549.34h-3.46a.17.17,0,0,0-.18.19v10.17c0,.66-.24.94-1.09.94H473.11c-.86,0-1.09-.28-1.09-.94V549.52a.17.17,0,0,0-.18-.18h-3.46a.17.17,0,0,0-.18.19v9.88c0,2.6,1.34,4.66,5.27,4.66h19.67c3.94,0,5.28-2.07,5.28-4.66v-9.89a.16.16,0,0,0-.18-.18" transform="translate(-426 -459.93)" style="fill:#3b3939"/></svg>