<svg xmlns="http://www.w3.org/2000/svg" xmlns:xlink="http://www.w3.org/1999/xlink" viewBox="0 0 398.01 398.01"><defs><clipPath id="a" transform="translate(-313 -312.99)"><rect x="313" y="313" width="398" height="398" style="fill:none"/></clipPath></defs><title>BMW logo</title><g style="clip-path:url(#a)"><path d="M512,313c-109.9,0-199,89.1-199,199s89.1,199,199,199,199-89.1,199-199-89.1-199-199-199M698.06,512c0,102.76-83.3,186.06-186.06,186.06S325.95,614.75,325.95,512,409.25,325.94,512,325.94,698.06,409.24,698.06,512" transform="translate(-313 -312.99)" style="fill:#707172"/><path d="M512,394v6.47A111.66,111.66,0,0,1,623.55,512H630A118,118,0,0,0,512,394m0,229.54A111.66,111.66,0,0,1,400.46,512H394A118,118,0,0,0,512,630" transform="translate(-313 -312.99)" style="fill:#707172"/><path d="M608.45,427.57c2.7,2.91,6.59,7.59,8.78,10.43l40.29-25.58c-2-2.63-5.21-6.63-7.62-9.45l-25.52,16.88-1.73,1.5,1.3-1.89L635.22,397l-8-8-22.5,11.27-1.89,1.3,1.51-1.75,16.89-25.51c-3-2.53-5.82-4.84-9.47-7.66l-25.58,40.27c3.24,2.5,7.51,6.15,10.23,8.65l24.09-12.49,1.54-1.13-1.13,1.54Z" transform="translate(-313 -312.99)" style="fill:#707172"/><path d="M517,376.55l11-24.66.7-2.18-.2,2.28,1.16,32.95c3.86.37,7.85.9,11.79,1.55l-1.79-48.81q-8.26-.91-16.46-1.27l-10.84,26.92-.39,2-.37-2-10.84-26.92c-5.48.23-11,.66-16.46,1.27l-1.79,48.81c3.94-.65,7.93-1.18,11.79-1.55L495.48,352l-.2-2.28.7,2.18,11,24.66Z" transform="translate(-313 -312.99)" style="fill:#707172"/><path d="M428,415.44c6.36-6.7,10-14.44,3.6-21.84-3.47-4-9.28-4.9-14.11-2.92l-.47.2.15-.43a11.63,11.63,0,0,0-4-12.19,12,12,0,0,0-8.91-2.48c-6,.61-10.58,4.69-23.1,18.66-3.78,4.21-9.28,10.85-12.58,15.16,0,0,34.38,32.63,34.38,32.63C414.33,429.6,419,424.91,428,415.44m-44.86-8a213.16,213.16,0,0,1,17.63-19.2,9,9,0,0,1,3.59-2.3,4.25,4.25,0,0,1,5.11,3.3c.54,2.32-.94,4.54-2.55,6.36-3.67,4.13-17.09,18.18-17.09,18.18Zm13.45,12.77S409.64,406.41,413.9,402a15.83,15.83,0,0,1,4-3.39,4.47,4.47,0,0,1,4.63.09,4.09,4.09,0,0,1,1.75,4.3c-.44,2-2,3.86-3.38,5.31l-17.34,18.55Z" transform="translate(-313 -312.99)" style="fill:#707172"/><path d="M512,394V512H394A118,118,0,0,1,512,394" transform="translate(-313 -312.99)" style="fill:#0068b1"/><path d="M630,512A118,118,0,0,1,512,630V512Z" transform="translate(-313 -312.99)" style="fill:#0068b1"/></g></svg>