<svg xmlns="http://www.w3.org/2000/svg" viewBox="0 0 200.3 131.45"><title>Cupra Racing logo - Brandlogos.net</title><path d="M453.14,446.27c19.21,6.68,38.32,13.67,57.58,20.22a2.72,2.72,0,0,0,2,0c19.22-6.58,38.32-13.51,57.5-20.22q-10.21,16.27-20.62,32.4c-3.21-1.38-6.52-2.53-9.76-3.86,1.88-3.3,3.89-6.53,5.8-9.82-6.19,3.12-12.5,6-18.65,9.22,4.3,1.64,8.6,3.24,12.87,5,2.38,1,4.93,2.84,5.09,5.63.38,3.1-1.73,5.63-3.23,8.11-9.27,14.5-18.48,29-27.79,43.5.05-3.82-.39-7.67.06-11.46,3.66-11.62,7.28-23.26,10.61-35,.66-1.74-1.29-2.67-2.54-3.28-3.53-1.56-6.84-3.63-10.46-5-3.67,1.59-7.19,3.51-10.79,5.25-1.11.51-2.68,1.53-2,3,3.31,11.73,7,23.36,10.6,35,.4,3.8,0,7.65,0,11.48q-13.74-21.51-27.45-43c-1.59-2.64-3.91-5.34-3.51-8.64.21-2.77,2.75-4.61,5.13-5.57,4.23-1.72,8.52-3.3,12.78-5C490.25,471,484,468.1,477.78,465c1.9,3.29,3.91,6.51,5.78,9.82-3.26,1.3-6.55,2.5-9.8,3.83Q463.38,462.51,453.14,446.27Z" transform="translate(-411.85 -446.27)"/><path d="M493.85,577.5c.06-6.34,0-12.66.06-19,10.42.07,20.85,0,31.27,0,2-.07,4.41,1,4.82,3.15a34.76,34.76,0,0,1,0,6.49c-.13,2.38-2.62,3.82-4.82,3.66-8.5,0-17,0-25.51,0,0,1.9,0,3.8,0,5.7-2,.05-3.93,0-5.9,0m5.84-14.7c0,1.48,0,3,.07,4.44,8.07-.08,16.14.07,24.21-.07,1.46-.85.47-2.88.75-4.25C516.38,562.64,508,562.86,499.69,562.8Z" transform="translate(-411.85 -446.27)"/><path d="M412.21,561.42a5.36,5.36,0,0,1,5-2.9c10.22,0,20.43,0,30.65,0,0,1.75,0,3.5,0,5.25-10,.07-20-.09-30,.08l-.74.6c-.12,2.51,0,5-.08,7.56a9.87,9.87,0,0,0,2.77.42c9.35,0,18.71,0,28.06,0q0,2.53,0,5.07c-9.8.28-19.61,0-29.41.14-2.4.1-5.38-.37-6.34-2.94-.52-2.27-.16-4.63-.26-6.94C411.94,565.63,411.63,563.47,412.21,561.42Z" transform="translate(-411.85 -446.27)" style="fill:#010101"/><path d="M452.78,572.89c0-4.79,0-9.59,0-14.37,2.09,0,4.2,0,6.3,0,.07,4.59-.08,9.19.09,13.79,7.77.15,15.56.06,23.33.05.32-4.61.08-9.24.15-13.85,2.12,0,4.24,0,6.36,0,0,4.79.06,9.58,0,14.37a4.89,4.89,0,0,1-4.92,4.67c-7.3.22-14.6-.07-21.91.06a26,26,0,0,1-6.32-.4A4.63,4.63,0,0,1,452.78,572.89Z" transform="translate(-411.85 -446.27)" style="fill:#010101"/><path d="M535,558.51c10.24,0,20.47,0,30.71,0,2.21,0,4.81,1.11,5.36,3.44a44.86,44.86,0,0,1,0,6.44c-.32,1.8-1.91,2.74-3.36,3.58,1.39,1.76,2.62,3.63,3.87,5.49-2.53-.16-6.37,1.36-7.79-1.51-.85-1.35-1.65-2.72-2.47-4.09-6.77-.06-13.53,0-20.3,0,0,1.86,0,3.73,0,5.6a39.1,39.1,0,0,1-6.07.05c0-6.33,0-12.66,0-19m6.08,4.07c-.05,1.54-.05,3.09,0,4.63,8-.06,16,.11,24-.08l.8-.58c-.12-1.3.66-3.26-.89-3.9C557,562.5,549,562.66,541.06,562.59Z" transform="translate(-411.85 -446.27)" style="fill:#010101"/><path d="M576.06,563.24c-.08-2.9,2.94-4.92,5.63-4.72,10.14,0,20.28,0,30.42,0,0,6.33.11,12.66-.08,19a31.67,31.67,0,0,1-5.29,0c-.8-1.66-.12-3.84-.31-5.68H582c0,1.9,0,3.81,0,5.72-2,.05-3.94,0-5.9-.06.06-4.75-.12-9.51,0-14.26m5.94-.38c0,1.46,0,2.92,0,4.38,8.12,0,16.25,0,24.38,0,0-1.47,0-2.94,0-4.41C598.28,562.81,590.14,562.73,582,562.86Z" transform="translate(-411.85 -446.27)" style="fill:#010101"/></svg>