<svg xmlns="http://www.w3.org/2000/svg" viewBox="0 0 265 58.39"><title>XPeng Motors logo</title><path d="M435,509.92h23.9a4.3,4.3,0,0,0,3.51-1.53c3.77-3.71,13.79-13.79,18.87-19.07a4,4,0,0,0,1.27-4.26,3.54,3.54,0,0,0-4.6-2l-.41.18c-5.35,2.11-41.36,18.38-42.58,18.89a2.54,2.54,0,0,0-1.88,2.53v3.17a2.39,2.39,0,0,0,.14.93A1.81,1.81,0,0,0,435,509.9m46.35,24.74c-5-5.27-15.1-15.32-18.87-19.07a4.27,4.27,0,0,0-3.51-1.53H435a1.81,1.81,0,0,0-1.73,1.15,2.19,2.19,0,0,0-.12.93v3.17a2.56,2.56,0,0,0,1.85,2.5c1.16.49,37.22,16.76,42.58,18.87a3.52,3.52,0,0,0,4.78-1.41l.18-.41a4,4,0,0,0-1.26-4.24m-54.1-32.44c-1.18-.47-37.24-16.76-42.58-18.87a3.54,3.54,0,0,0-4.78,1.41c0,.14-.14.28-.2.41a4,4,0,0,0,1.27,4.24c5,5.28,15.1,15.32,18.87,19.09a4.26,4.26,0,0,0,3.51,1.53h23.91a1.79,1.79,0,0,0,1.72-1.15,2.39,2.39,0,0,0,.14-.93v-3.23a2.57,2.57,0,0,0-1.85-2.5m0,11.93H403.32a4.23,4.23,0,0,0-3.51,1.53C396,519.32,386,529.4,380.94,534.69a4,4,0,0,0-1.26,4.24,3.51,3.51,0,0,0,4.6,2,2.44,2.44,0,0,0,.41-.18c5.35-2.1,41.36-18.38,42.58-18.87a2.57,2.57,0,0,0,1.85-2.5v-3.22a2.18,2.18,0,0,0-.14-.93,1.81,1.81,0,0,0-1.72-1.15m170.55-21.71H584.21a.86.86,0,0,0-.87.87h0v38.29a.86.86,0,0,0,.86.87.89.89,0,0,0,.4-.09l3.06-1.91a.87.87,0,0,0,.47-.78V516.49h4.6v15.1a.86.86,0,0,0,.86.86.89.89,0,0,0,.4-.09l4.23-2.19a.84.84,0,0,0,.46-.77V493.25a.84.84,0,0,0-.84-.87ZM592.74,514h-4.6v-8.12h4.67v8.16Zm0-10.62h-4.6v-8.58h4.67v8.58Zm23.59-11H602.7a.87.87,0,0,0-.86.87h0v38.29a.86.86,0,0,0,1.24.78l3.12-1.91a.87.87,0,0,0,.47-.78V516.49h4.6v15.1a.86.86,0,0,0,.86.86.87.87,0,0,0,.38-.09l4.23-2.19a.86.86,0,0,0,.47-.77V493.25a.87.87,0,0,0-.86-.87ZM611.25,514h-4.6v-8.12h4.6V514Zm0-10.62h-4.6v-8.58h4.6v8.58Zm22.09,21,2.08-2.07a.43.43,0,0,0,0-.61.38.38,0,0,0-.31-.14H623.06a.87.87,0,0,0-.61.28l-2,2.05a.46.46,0,0,0,0,.63.51.51,0,0,0,.29.12h12a.86.86,0,0,0,.61-.26Zm11.17,4.75h0v-16a.87.87,0,0,0-.86-.87H625.72V496.88h11.6v9.67H632a1,1,0,0,0-.63.28l-2,2.14a.43.43,0,0,0,0,.61.41.41,0,0,0,.29.12h12.73a.87.87,0,0,0,.86-.87V495.31a.87.87,0,0,0-.86-.87h-11l2.13-2.16a.46.46,0,0,0,0-.63.43.43,0,0,0-.31-.12h-4.76a.86.86,0,0,0-.61.26l-2.53,2.65h-4a.86.86,0,0,0-.87.86h0v20.33a.87.87,0,0,0,.87.87h17.31V529.2H631.1a.86.86,0,0,0-.61.26l-2,2.07a.44.44,0,0,0,.31.74h14.8a.86.86,0,0,0,.86-.86h0ZM632.09,505l2.62-2.47a.87.87,0,0,0,0-1.24h0l-2.62-2.47a.87.87,0,0,0-1.18,0l-2.62,2.47a.87.87,0,0,0,0,1.24h0l2.63,2.47a.86.86,0,0,0,1.16,0Zm-106.18-1.09-3.42-1.65a.86.86,0,0,0-1.12.34l-9.86,17.14a.87.87,0,0,0,.32,1.18.84.84,0,0,0,.54.12l4.78-.61a.83.83,0,0,0,.64-.43L526.25,505a.87.87,0,0,0-.32-1.19Zm36-1.32a.86.86,0,0,0-1.12-.34l-3.42,1.65A.87.87,0,0,0,557,505h0L565.49,520a.81.81,0,0,0,.63.43l4.79.61a.86.86,0,0,0,.95-.77.83.83,0,0,0-.11-.54Zm-17.62-11.06H539a.87.87,0,0,0-.86.87h0v39.27a.87.87,0,0,0,.86.87.83.83,0,0,0,.34,0l5.35-2.31a.89.89,0,0,0,.52-.8V492.35a.87.87,0,0,0-.86-.87Z" transform="translate(-379.5 -482.81)" style="fill:#303030"/></svg>